<?xml version="1.0" encoding="UTF-8"?>
<svg xmlns="http://www.w3.org/2000/svg" xmlns:xlink="http://www.w3.org/1999/xlink" width="120px" height="128px" viewBox="0 0 120 127" version="1.1">
<g id="surface1">
<path style=" stroke:none;fill-rule:evenodd;fill:rgb(61.960787%,83.92157%,26.666668%);fill-opacity:1;" d="M 65.464844 46.835938 C 64.613281 47.890625 63.851562 49.027344 63.179688 50.246094 C 65.335938 56.960938 65.929688 63.820312 64.957031 70.820312 C 62.339844 70.292969 59.714844 70.207031 57.078125 70.570312 C 58.390625 61.855469 57.375 53.441406 54.027344 45.320312 C 50.390625 37.285156 45.21875 30.34375 38.515625 24.492188 C 36.175781 22.417969 33.761719 20.441406 31.269531 18.558594 C 30.523438 17.027344 30.988281 16.480469 32.667969 16.917969 C 37.539062 19.820312 42.203125 23.015625 46.652344 26.511719 C 48.992188 28.75 51.238281 31.0625 53.390625 33.453125 C 55.722656 36.746094 58.054688 40.027344 60.382812 43.300781 C 63.1875 40.21875 65.855469 37.023438 68.390625 33.707031 C 71.246094 30.703125 74.253906 27.882812 77.414062 25.25 C 79.773438 23.832031 82.0625 22.316406 84.28125 20.703125 C 85.09375 20.328125 85.941406 20.246094 86.820312 20.453125 C 87.089844 20.800781 87.132812 21.179688 86.949219 21.585938 C 77.933594 28.488281 70.773438 36.902344 65.464844 46.835938 Z M 65.464844 46.835938 "/>
<path style=" stroke:none;fill-rule:evenodd;fill:rgb(41.568628%,65.882355%,15.294118%);fill-opacity:1;" d="M 65.464844 46.835938 C 70.773438 36.902344 77.933594 28.488281 86.949219 21.585938 C 87.132812 21.179688 87.089844 20.800781 86.820312 20.453125 C 85.941406 20.246094 85.09375 20.328125 84.28125 20.703125 C 82.0625 22.316406 79.773438 23.832031 77.414062 25.25 C 74.253906 27.882812 71.246094 30.703125 68.390625 33.707031 C 65.855469 37.023438 63.1875 40.21875 60.382812 43.300781 C 58.054688 40.027344 55.722656 36.746094 53.390625 33.453125 C 51.238281 31.0625 48.992188 28.75 46.652344 26.511719 C 42.203125 23.015625 37.539062 19.820312 32.667969 16.917969 C 30.988281 16.480469 30.523438 17.027344 31.269531 18.558594 C 33.761719 20.441406 36.175781 22.417969 38.515625 24.492188 C 45.21875 30.34375 50.390625 37.285156 54.027344 45.320312 C 39.226562 45.445312 27.828125 39.382812 19.832031 27.140625 C 15.230469 18.949219 13.660156 10.242188 15.128906 1.011719 C 26.1875 0.660156 36.359375 3.4375 45.636719 9.34375 C 49.613281 12.324219 52.917969 15.902344 55.550781 20.074219 C 54.667969 21.78125 53.820312 23.507812 53.007812 25.25 C 54.347656 26.148438 55.578125 27.203125 56.695312 28.40625 C 57.902344 30.214844 59.046875 32.066406 60.128906 33.960938 C 62.039062 28.136719 64.878906 22.835938 68.644531 18.050781 C 73.777344 12.617188 80.003906 8.957031 87.332031 7.070312 C 92.335938 5.632812 97.421875 4.917969 102.585938 4.921875 C 104.039062 15.949219 101.371094 25.878906 94.578125 34.714844 C 86.992188 43.695312 77.289062 47.734375 65.464844 46.835938 Z M 65.464844 46.835938 "/>
<path style=" stroke:none;fill-rule:evenodd;fill:rgb(81.176472%,42.745098%,8.627451%);fill-opacity:1;" d="M 25.804688 89.253906 C 25.761719 89.503906 25.847656 89.671875 26.058594 89.757812 C 30.164062 96.652344 35.925781 101.742188 43.347656 105.035156 C 46.488281 106.285156 49.707031 107.25 53.007812 107.9375 C 55.648438 92.355469 64.882812 84.191406 80.71875 83.445312 C 85.941406 83.300781 90.644531 84.730469 94.832031 87.738281 C 100.675781 76.46875 101.011719 65.023438 95.847656 53.402344 C 94.476562 50.128906 92.570312 47.226562 90.128906 44.691406 C 92.4375 43.070312 94.597656 41.261719 96.609375 39.261719 C 98.269531 37.265625 99.839844 35.207031 101.3125 33.074219 C 103.082031 32.371094 104.652344 32.664062 106.015625 33.960938 C 107.445312 35.96875 108.96875 37.902344 110.59375 39.765625 C 111.628906 41.121094 111.96875 42.632812 111.609375 44.3125 C 110.476562 45.960938 109.289062 47.5625 108.050781 49.109375 C 107.140625 53.5625 108.710938 56.804688 112.753906 58.828125 C 115.125 59.015625 116.949219 60.066406 118.21875 61.984375 C 118.503906 64.328125 118.628906 66.683594 118.601562 69.054688 C 118.625 71.507812 118.5 73.949219 118.21875 76.375 C 117.683594 77.5 116.878906 78.382812 115.804688 79.027344 C 110.503906 79.832031 107.835938 82.902344 107.796875 88.242188 C 108.492188 90.113281 109.59375 91.714844 111.101562 93.039062 C 112.257812 94.730469 112.257812 96.414062 111.101562 98.089844 C 109.136719 100.628906 107.273438 103.238281 105.507812 105.917969 C 104.171875 107.863281 102.351562 108.582031 100.042969 108.0625 C 95.964844 105.773438 92.191406 106.238281 88.730469 109.453125 C 87.097656 111.597656 86.632812 113.996094 87.332031 116.648438 C 87.335938 119.167969 86.148438 120.851562 83.769531 121.699219 C 79.675781 123.417969 75.480469 124.808594 71.1875 125.863281 C 70.195312 125.730469 69.304688 125.351562 68.515625 124.726562 C 67.59375 123.359375 66.707031 121.972656 65.847656 120.5625 C 63.625 118.367188 60.957031 117.566406 57.839844 118.164062 C 56.640625 118.464844 55.539062 118.96875 54.535156 119.679688 C 53.285156 121.316406 52.097656 123 50.972656 124.726562 C 50.117188 125.386719 49.140625 125.765625 48.050781 125.863281 C 43.480469 124.660156 39.03125 123.101562 34.703125 121.191406 C 33.175781 120.191406 32.414062 118.761719 32.414062 116.902344 C 33.535156 112.109375 31.753906 108.828125 27.078125 107.054688 C 24.453125 106.308594 21.996094 106.644531 19.703125 108.0625 C 17.609375 108.578125 15.871094 108.03125 14.492188 106.421875 C 12.457031 103.394531 10.421875 100.363281 8.390625 97.332031 C 8.21875 96.238281 8.21875 95.144531 8.390625 94.050781 C 9.039062 92.730469 9.886719 91.554688 10.933594 90.515625 C 12.425781 87.082031 11.960938 83.925781 9.535156 81.046875 C 7.816406 79.714844 5.867188 78.957031 3.6875 78.773438 C 2.480469 78.128906 1.71875 77.160156 1.398438 75.871094 C 1.738281 71.410156 1.738281 66.949219 1.398438 62.488281 C 1.640625 61.28125 2.320312 60.398438 3.433594 59.839844 C 8.953125 59.066406 11.792969 55.910156 11.949219 50.371094 C 11.753906 49.476562 11.414062 48.632812 10.933594 47.847656 C 10.167969 46.921875 9.40625 45.996094 8.644531 45.070312 C 8.269531 43.914062 8.183594 42.734375 8.390625 41.535156 C 10.082031 38.503906 12.160156 35.769531 14.617188 33.328125 C 15.734375 32.730469 16.921875 32.558594 18.179688 32.824219 C 21.257812 37.1875 24.988281 40.933594 29.363281 44.058594 C 29.640625 44.277344 29.683594 44.53125 29.492188 44.816406 C 21.945312 53.75 19.0625 64.019531 20.847656 75.621094 C 21.574219 80.523438 23.226562 85.066406 25.804688 89.253906 Z M 25.804688 89.253906 "/>
<path style=" stroke:none;fill-rule:evenodd;fill:rgb(80.784315%,33.725491%,15.686275%);fill-opacity:1;" d="M 1.398438 62.488281 C 1.738281 66.949219 1.738281 71.410156 1.398438 75.871094 C 1.230469 71.476562 1.230469 67.015625 1.398438 62.488281 Z M 1.398438 62.488281 "/>
<path style=" stroke:none;fill-rule:evenodd;fill:rgb(66.274512%,34.901962%,0.392157%);fill-opacity:1;" d="M 64.957031 70.820312 C 72.253906 72.511719 77.507812 76.722656 80.71875 83.445312 C 64.882812 84.191406 55.648438 92.355469 53.007812 107.9375 C 49.707031 107.25 46.488281 106.285156 43.347656 105.035156 C 35.925781 101.742188 30.164062 96.652344 26.058594 89.757812 C 30.128906 86.265625 34.875 84.375 40.296875 84.078125 C 43.234375 77.3125 48.320312 73.019531 55.550781 71.199219 C 55.308594 71.078125 55.054688 71.035156 54.789062 71.074219 C 55.480469 70.71875 56.242188 70.550781 57.078125 70.570312 C 59.714844 70.207031 62.339844 70.292969 64.957031 70.820312 Z M 64.957031 70.820312 "/>
<path style=" stroke:none;fill-rule:evenodd;fill:rgb(65.490198%,31.764707%,11.764706%);fill-opacity:1;" d="M 54.789062 71.074219 C 55.054688 71.035156 55.308594 71.078125 55.550781 71.199219 C 48.320312 73.019531 43.234375 77.3125 40.296875 84.078125 C 34.875 84.375 30.128906 86.265625 26.058594 89.757812 C 25.847656 89.671875 25.761719 89.503906 25.804688 89.253906 C 29.992188 85.789062 34.820312 83.9375 40.296875 83.699219 C 42.984375 77.097656 47.8125 72.890625 54.789062 71.074219 Z M 54.789062 71.074219 "/>
<path style=" stroke:none;fill-rule:evenodd;fill:rgb(66.274512%,34.901962%,0%);fill-opacity:1;" d="M 85.296875 92.535156 C 87.382812 92.378906 88.273438 93.304688 87.964844 95.3125 C 87.398438 96.414062 86.511719 96.792969 85.296875 96.449219 C 84.1875 95.886719 83.804688 95.003906 84.152344 93.796875 C 84.414062 93.246094 84.792969 92.824219 85.296875 92.535156 Z M 85.296875 92.535156 "/>
<path style=" stroke:none;fill-rule:evenodd;fill:rgb(65.882355%,34.901962%,0%);fill-opacity:1;" d="M 73.601562 97.082031 C 77.039062 97 78.355469 98.597656 77.542969 101.878906 C 76.492188 103.296875 75.09375 103.757812 73.347656 103.265625 C 71.660156 102.253906 71.109375 100.78125 71.695312 98.847656 C 72.304688 98.199219 72.941406 97.609375 73.601562 97.082031 Z M 73.601562 97.082031 "/>
<path style=" stroke:none;fill-rule:evenodd;fill:rgb(66.274512%,34.901962%,0%);fill-opacity:1;" d="M 72.332031 111.726562 C 74.011719 111.585938 74.820312 112.34375 74.746094 113.996094 C 73.730469 115.929688 72.542969 116.011719 71.1875 114.25 C 70.953125 113.117188 71.332031 112.277344 72.332031 111.726562 Z M 72.332031 111.726562 "/>
</g>
</svg>
