<?xml version="1.0" encoding="UTF-8"?>
<svg xmlns="http://www.w3.org/2000/svg" xmlns:xlink="http://www.w3.org/1999/xlink" width="45px" height="48px" viewBox="0 0 45 47" version="1.1">
<g id="surface1">
<path style=" stroke:none;fill-rule:evenodd;fill:rgb(61.960787%,83.92157%,26.666668%);fill-opacity:1;" d="M 24.550781 17.332031 C 24.230469 17.722656 23.945312 18.144531 23.691406 18.59375 C 24.5 21.082031 24.722656 23.617188 24.359375 26.210938 C 23.378906 26.015625 22.394531 25.984375 21.402344 26.117188 C 21.894531 22.890625 21.515625 19.777344 20.257812 16.773438 C 18.894531 13.800781 16.957031 11.230469 14.445312 9.0625 C 13.566406 8.296875 12.660156 7.566406 11.726562 6.867188 C 11.445312 6.300781 11.621094 6.097656 12.25 6.261719 C 14.078125 7.335938 15.824219 8.519531 17.496094 9.8125 C 18.371094 10.640625 19.214844 11.496094 20.019531 12.378906 C 20.894531 13.597656 21.769531 14.8125 22.644531 16.023438 C 23.695312 14.882812 24.695312 13.699219 25.644531 12.472656 C 26.714844 11.363281 27.84375 10.320312 29.03125 9.34375 C 29.914062 8.820312 30.773438 8.257812 31.605469 7.660156 C 31.910156 7.523438 32.226562 7.492188 32.558594 7.570312 C 32.660156 7.699219 32.675781 7.839844 32.605469 7.988281 C 29.226562 10.542969 26.539062 13.65625 24.550781 17.332031 Z M 24.550781 17.332031 "/>
<path style=" stroke:none;fill-rule:evenodd;fill:rgb(41.568628%,65.882355%,15.294118%);fill-opacity:1;" d="M 24.550781 17.332031 C 26.539062 13.65625 29.226562 10.542969 32.605469 7.988281 C 32.675781 7.839844 32.660156 7.699219 32.558594 7.570312 C 32.226562 7.492188 31.910156 7.523438 31.605469 7.660156 C 30.773438 8.257812 29.914062 8.820312 29.03125 9.34375 C 27.84375 10.320312 26.714844 11.363281 25.644531 12.472656 C 24.695312 13.699219 23.695312 14.882812 22.644531 16.023438 C 21.769531 14.8125 20.894531 13.597656 20.019531 12.378906 C 19.214844 11.496094 18.371094 10.640625 17.496094 9.8125 C 15.824219 8.519531 14.078125 7.335938 12.25 6.261719 C 11.621094 6.097656 11.445312 6.300781 11.726562 6.867188 C 12.660156 7.566406 13.566406 8.296875 14.445312 9.0625 C 16.957031 11.230469 18.894531 13.800781 20.257812 16.773438 C 14.710938 16.816406 10.4375 14.574219 7.4375 10.042969 C 5.710938 7.011719 5.121094 3.789062 5.671875 0.375 C 9.820312 0.246094 13.632812 1.273438 17.113281 3.457031 C 18.605469 4.5625 19.84375 5.886719 20.832031 7.429688 C 20.5 8.0625 20.183594 8.699219 19.878906 9.34375 C 20.378906 9.675781 20.839844 10.066406 21.261719 10.511719 C 21.714844 11.179688 22.140625 11.867188 22.546875 12.566406 C 23.265625 10.414062 24.328125 8.453125 25.742188 6.679688 C 27.667969 4.671875 30.003906 3.316406 32.75 2.617188 C 34.625 2.085938 36.53125 1.820312 38.46875 1.820312 C 39.015625 5.902344 38.015625 9.578125 35.464844 12.847656 C 32.621094 16.171875 28.984375 17.667969 24.550781 17.332031 Z M 24.550781 17.332031 "/>
<path style=" stroke:none;fill-rule:evenodd;fill:rgb(81.176472%,42.745098%,8.627451%);fill-opacity:1;" d="M 9.675781 33.03125 C 9.660156 33.125 9.691406 33.1875 9.773438 33.21875 C 11.3125 35.769531 13.472656 37.652344 16.253906 38.871094 C 17.433594 39.332031 18.640625 39.691406 19.878906 39.945312 C 20.867188 34.179688 24.332031 31.15625 30.269531 30.882812 C 32.226562 30.828125 33.992188 31.355469 35.5625 32.46875 C 37.753906 28.300781 37.878906 24.0625 35.941406 19.761719 C 35.429688 18.550781 34.714844 17.476562 33.796875 16.539062 C 34.664062 15.9375 35.472656 15.269531 36.230469 14.53125 C 36.851562 13.792969 37.4375 13.027344 37.992188 12.242188 C 38.65625 11.980469 39.242188 12.089844 39.757812 12.566406 C 40.292969 13.3125 40.863281 14.027344 41.472656 14.714844 C 41.859375 15.21875 41.988281 15.777344 41.855469 16.398438 C 41.429688 17.011719 40.984375 17.601562 40.519531 18.175781 C 40.179688 19.824219 40.765625 21.023438 42.28125 21.769531 C 43.171875 21.839844 43.855469 22.230469 44.332031 22.9375 C 44.4375 23.804688 44.484375 24.679688 44.476562 25.554688 C 44.484375 26.464844 44.4375 27.367188 44.332031 28.265625 C 44.132812 28.679688 43.828125 29.007812 43.425781 29.246094 C 41.4375 29.542969 40.4375 30.679688 40.421875 32.65625 C 40.683594 33.347656 41.097656 33.941406 41.664062 34.433594 C 42.097656 35.058594 42.097656 35.679688 41.664062 36.300781 C 40.925781 37.242188 40.226562 38.207031 39.566406 39.199219 C 39.066406 39.917969 38.382812 40.183594 37.515625 39.992188 C 35.988281 39.144531 34.570312 39.316406 33.273438 40.507812 C 32.660156 41.300781 32.488281 42.1875 32.75 43.167969 C 32.75 44.101562 32.304688 44.722656 31.414062 45.039062 C 29.878906 45.675781 28.304688 46.1875 26.695312 46.578125 C 26.324219 46.53125 25.988281 46.390625 25.695312 46.160156 C 25.347656 45.652344 25.015625 45.140625 24.691406 44.617188 C 23.859375 43.804688 22.859375 43.507812 21.691406 43.730469 C 21.242188 43.839844 20.828125 44.027344 20.449219 44.289062 C 19.980469 44.898438 19.535156 45.519531 19.117188 46.160156 C 18.792969 46.402344 18.429688 46.542969 18.019531 46.578125 C 16.304688 46.132812 14.636719 45.558594 13.015625 44.851562 C 12.441406 44.480469 12.15625 43.953125 12.15625 43.261719 C 12.574219 41.488281 11.90625 40.273438 10.152344 39.617188 C 9.167969 39.34375 8.246094 39.464844 7.390625 39.992188 C 6.605469 40.183594 5.953125 39.980469 5.433594 39.382812 C 4.671875 38.261719 3.910156 37.140625 3.144531 36.019531 C 3.082031 35.617188 3.082031 35.210938 3.144531 34.804688 C 3.390625 34.316406 3.707031 33.882812 4.097656 33.496094 C 4.660156 32.226562 4.484375 31.058594 3.574219 29.992188 C 2.929688 29.5 2.199219 29.222656 1.382812 29.152344 C 0.929688 28.914062 0.644531 28.554688 0.523438 28.078125 C 0.652344 26.429688 0.652344 24.777344 0.523438 23.125 C 0.617188 22.679688 0.871094 22.351562 1.285156 22.144531 C 3.359375 21.859375 4.421875 20.691406 4.480469 18.640625 C 4.40625 18.308594 4.28125 18 4.097656 17.707031 C 3.8125 17.363281 3.527344 17.023438 3.242188 16.679688 C 3.101562 16.25 3.070312 15.816406 3.144531 15.371094 C 3.78125 14.25 4.558594 13.238281 5.480469 12.335938 C 5.902344 12.113281 6.347656 12.050781 6.816406 12.148438 C 7.972656 13.761719 9.371094 15.148438 11.011719 16.304688 C 11.113281 16.386719 11.128906 16.480469 11.058594 16.585938 C 8.230469 19.890625 7.148438 23.691406 7.816406 27.984375 C 8.089844 29.800781 8.710938 31.480469 9.675781 33.03125 Z M 9.675781 33.03125 "/>
<path style=" stroke:none;fill-rule:evenodd;fill:rgb(80.784315%,33.725491%,15.686275%);fill-opacity:1;" d="M 0.523438 23.125 C 0.652344 24.777344 0.652344 26.429688 0.523438 28.078125 C 0.460938 26.453125 0.460938 24.800781 0.523438 23.125 Z M 0.523438 23.125 "/>
<path style=" stroke:none;fill-rule:evenodd;fill:rgb(66.274512%,34.901962%,0.392157%);fill-opacity:1;" d="M 24.359375 26.210938 C 27.09375 26.835938 29.066406 28.394531 30.269531 30.882812 C 24.332031 31.15625 20.867188 34.179688 19.878906 39.945312 C 18.640625 39.691406 17.433594 39.332031 16.253906 38.871094 C 13.472656 37.652344 11.3125 35.769531 9.773438 33.21875 C 11.296875 31.925781 13.078125 31.226562 15.109375 31.117188 C 16.214844 28.609375 18.121094 27.023438 20.832031 26.351562 C 20.742188 26.304688 20.644531 26.289062 20.546875 26.304688 C 20.804688 26.171875 21.089844 26.109375 21.402344 26.117188 C 22.394531 25.984375 23.378906 26.015625 24.359375 26.210938 Z M 24.359375 26.210938 "/>
<path style=" stroke:none;fill-rule:evenodd;fill:rgb(65.490198%,31.764707%,11.764706%);fill-opacity:1;" d="M 20.546875 26.304688 C 20.644531 26.289062 20.742188 26.304688 20.832031 26.351562 C 18.121094 27.023438 16.214844 28.609375 15.109375 31.117188 C 13.078125 31.226562 11.296875 31.925781 9.773438 33.21875 C 9.691406 33.1875 9.660156 33.125 9.675781 33.03125 C 11.246094 31.75 13.058594 31.0625 15.109375 30.976562 C 16.117188 28.53125 17.929688 26.976562 20.546875 26.304688 Z M 20.546875 26.304688 "/>
<path style=" stroke:none;fill-rule:evenodd;fill:rgb(66.274512%,34.901962%,0%);fill-opacity:1;" d="M 31.984375 34.246094 C 32.769531 34.1875 33.101562 34.53125 32.988281 35.273438 C 32.773438 35.679688 32.441406 35.820312 31.984375 35.695312 C 31.570312 35.484375 31.425781 35.160156 31.558594 34.710938 C 31.65625 34.507812 31.796875 34.351562 31.984375 34.246094 Z M 31.984375 34.246094 "/>
<path style=" stroke:none;fill-rule:evenodd;fill:rgb(65.882355%,34.901962%,0%);fill-opacity:1;" d="M 27.601562 35.925781 C 28.890625 35.898438 29.382812 36.488281 29.078125 37.703125 C 28.683594 38.226562 28.160156 38.398438 27.503906 38.214844 C 26.871094 37.839844 26.664062 37.296875 26.886719 36.582031 C 27.113281 36.339844 27.351562 36.125 27.601562 35.925781 Z M 27.601562 35.925781 "/>
<path style=" stroke:none;fill-rule:evenodd;fill:rgb(66.274512%,34.901962%,0%);fill-opacity:1;" d="M 27.125 41.347656 C 27.753906 41.296875 28.058594 41.578125 28.03125 42.1875 C 27.648438 42.902344 27.203125 42.933594 26.695312 42.28125 C 26.605469 41.863281 26.75 41.550781 27.125 41.347656 Z M 27.125 41.347656 "/>
</g>
</svg>
