<?xml version="1.0" encoding="UTF-8"?>
<svg xmlns="http://www.w3.org/2000/svg" xmlns:xlink="http://www.w3.org/1999/xlink" width="60px" height="64px" viewBox="0 0 60 63" version="1.1">
<g id="surface1">
<path style=" stroke:none;fill-rule:evenodd;fill:rgb(61.960787%,83.92157%,26.666668%);fill-opacity:1;" d="M 32.734375 23.234375 C 32.308594 23.757812 31.925781 24.320312 31.589844 24.925781 C 32.667969 28.257812 32.964844 31.660156 32.480469 35.132812 C 31.171875 34.871094 29.855469 34.828125 28.539062 35.007812 C 29.195312 30.683594 28.6875 26.507812 27.011719 22.480469 C 25.195312 18.496094 22.609375 15.050781 19.257812 12.148438 C 18.085938 11.121094 16.878906 10.140625 15.636719 9.207031 C 15.261719 8.445312 15.496094 8.175781 16.335938 8.390625 C 18.769531 9.832031 21.101562 11.417969 23.328125 13.152344 C 24.496094 14.261719 25.617188 15.410156 26.695312 16.59375 C 27.863281 18.226562 29.027344 19.855469 30.191406 21.480469 C 31.59375 19.953125 32.929688 18.363281 34.195312 16.71875 C 35.621094 15.230469 37.125 13.832031 38.707031 12.523438 C 39.886719 11.824219 41.03125 11.070312 42.140625 10.269531 C 42.546875 10.085938 42.96875 10.042969 43.410156 10.144531 C 43.546875 10.320312 43.566406 10.507812 43.472656 10.707031 C 38.964844 14.132812 35.386719 18.304688 32.734375 23.234375 Z M 32.734375 23.234375 "/>
<path style=" stroke:none;fill-rule:evenodd;fill:rgb(41.568628%,65.882355%,15.294118%);fill-opacity:1;" d="M 32.734375 23.234375 C 35.386719 18.304688 38.964844 14.132812 43.472656 10.707031 C 43.566406 10.507812 43.546875 10.320312 43.410156 10.144531 C 42.96875 10.042969 42.546875 10.085938 42.140625 10.269531 C 41.03125 11.070312 39.886719 11.824219 38.707031 12.523438 C 37.125 13.832031 35.621094 15.230469 34.195312 16.71875 C 32.929688 18.363281 31.59375 19.953125 30.191406 21.480469 C 29.027344 19.855469 27.863281 18.226562 26.695312 16.59375 C 25.617188 15.410156 24.496094 14.261719 23.328125 13.152344 C 21.101562 11.417969 18.769531 9.832031 16.335938 8.390625 C 15.496094 8.175781 15.261719 8.445312 15.636719 9.207031 C 16.878906 10.140625 18.085938 11.121094 19.257812 12.148438 C 22.609375 15.050781 25.195312 18.496094 27.011719 22.480469 C 19.613281 22.542969 13.914062 19.539062 9.914062 13.464844 C 7.613281 9.402344 6.832031 5.078125 7.5625 0.5 C 13.09375 0.328125 18.179688 1.707031 22.816406 4.632812 C 24.808594 6.113281 26.460938 7.886719 27.777344 9.957031 C 27.335938 10.804688 26.910156 11.660156 26.503906 12.523438 C 27.171875 12.972656 27.789062 13.492188 28.347656 14.089844 C 28.953125 14.988281 29.523438 15.90625 30.0625 16.847656 C 31.019531 13.957031 32.441406 11.328125 34.320312 8.957031 C 36.886719 6.257812 40.003906 4.445312 43.664062 3.507812 C 46.167969 2.792969 48.710938 2.4375 51.292969 2.441406 C 52.019531 7.910156 50.683594 12.835938 47.289062 17.222656 C 43.496094 21.675781 38.644531 23.679688 32.734375 23.234375 Z M 32.734375 23.234375 "/>
<path style=" stroke:none;fill-rule:evenodd;fill:rgb(81.176472%,42.745098%,8.627451%);fill-opacity:1;" d="M 12.902344 44.273438 C 12.878906 44.398438 12.921875 44.484375 13.03125 44.527344 C 15.082031 47.945312 17.964844 50.472656 21.671875 52.101562 C 23.242188 52.722656 24.855469 53.203125 26.503906 53.542969 C 27.824219 45.8125 32.441406 41.765625 40.359375 41.394531 C 42.96875 41.320312 45.320312 42.03125 47.414062 43.523438 C 50.335938 37.933594 50.507812 32.253906 47.921875 26.488281 C 47.238281 24.867188 46.285156 23.425781 45.0625 22.167969 C 46.21875 21.367188 47.300781 20.46875 48.304688 19.476562 C 49.136719 18.488281 49.917969 17.464844 50.65625 16.40625 C 51.542969 16.058594 52.324219 16.203125 53.007812 16.847656 C 53.722656 17.84375 54.484375 18.800781 55.296875 19.726562 C 55.8125 20.398438 55.984375 21.148438 55.804688 21.980469 C 55.238281 22.800781 54.644531 23.59375 54.027344 24.359375 C 53.570312 26.570312 54.355469 28.179688 56.378906 29.183594 C 57.5625 29.277344 58.472656 29.796875 59.109375 30.75 C 59.25 31.910156 59.316406 33.078125 59.300781 34.253906 C 59.3125 35.472656 59.25 36.683594 59.109375 37.886719 C 58.839844 38.445312 58.4375 38.882812 57.902344 39.203125 C 55.253906 39.601562 53.917969 41.125 53.898438 43.773438 C 54.246094 44.703125 54.796875 45.496094 55.550781 46.152344 C 56.128906 46.992188 56.128906 47.828125 55.550781 48.660156 C 54.570312 49.917969 53.636719 51.210938 52.753906 52.542969 C 52.085938 53.507812 51.175781 53.863281 50.019531 53.605469 C 47.980469 52.46875 46.097656 52.699219 44.363281 54.296875 C 43.546875 55.359375 43.316406 56.550781 43.664062 57.863281 C 43.667969 59.113281 43.074219 59.949219 41.886719 60.371094 C 39.835938 61.222656 37.738281 61.910156 35.59375 62.4375 C 35.097656 62.371094 34.652344 62.183594 34.257812 61.871094 C 33.796875 61.195312 33.351562 60.503906 32.921875 59.804688 C 31.8125 58.71875 30.476562 58.320312 28.917969 58.617188 C 28.320312 58.765625 27.769531 59.015625 27.265625 59.367188 C 26.640625 60.179688 26.050781 61.015625 25.488281 61.871094 C 25.058594 62.199219 24.570312 62.386719 24.027344 62.4375 C 21.742188 61.839844 19.515625 61.066406 17.351562 60.121094 C 16.589844 59.625 16.207031 58.914062 16.207031 57.988281 C 16.765625 55.613281 15.878906 53.984375 13.539062 53.105469 C 12.226562 52.734375 10.996094 52.902344 9.851562 53.605469 C 8.804688 53.859375 7.9375 53.589844 7.246094 52.792969 C 6.230469 51.289062 5.210938 49.785156 4.195312 48.285156 C 4.109375 47.742188 4.109375 47.199219 4.195312 46.65625 C 4.519531 46 4.945312 45.417969 5.464844 44.902344 C 6.214844 43.199219 5.980469 41.632812 4.765625 40.203125 C 3.90625 39.542969 2.933594 39.167969 1.84375 39.078125 C 1.242188 38.757812 0.859375 38.277344 0.699219 37.636719 C 0.867188 35.425781 0.867188 33.210938 0.699219 31 C 0.820312 30.398438 1.160156 29.960938 1.714844 29.683594 C 4.476562 29.300781 5.894531 27.734375 5.972656 24.988281 C 5.875 24.542969 5.707031 24.125 5.464844 23.734375 C 5.085938 23.273438 4.703125 22.816406 4.320312 22.355469 C 4.132812 21.785156 4.09375 21.199219 4.195312 20.601562 C 5.042969 19.101562 6.082031 17.746094 7.308594 16.53125 C 7.867188 16.234375 8.460938 16.152344 9.089844 16.28125 C 10.628906 18.449219 12.492188 20.304688 14.683594 21.855469 C 14.820312 21.964844 14.839844 22.089844 14.746094 22.230469 C 10.972656 26.664062 9.53125 31.757812 10.421875 37.511719 C 10.789062 39.945312 11.613281 42.199219 12.902344 44.273438 Z M 12.902344 44.273438 "/>
<path style=" stroke:none;fill-rule:evenodd;fill:rgb(80.784315%,33.725491%,15.686275%);fill-opacity:1;" d="M 0.699219 31 C 0.867188 33.210938 0.867188 35.425781 0.699219 37.636719 C 0.617188 35.457031 0.617188 33.242188 0.699219 31 Z M 0.699219 31 "/>
<path style=" stroke:none;fill-rule:evenodd;fill:rgb(66.274512%,34.901962%,0.392157%);fill-opacity:1;" d="M 32.480469 35.132812 C 36.128906 35.972656 38.753906 38.058594 40.359375 41.394531 C 32.441406 41.765625 27.824219 45.8125 26.503906 53.542969 C 24.855469 53.203125 23.242188 52.722656 21.671875 52.101562 C 17.964844 50.472656 15.082031 47.945312 13.03125 44.527344 C 15.066406 42.792969 17.4375 41.855469 20.148438 41.707031 C 21.617188 38.351562 24.160156 36.222656 27.777344 35.320312 C 27.65625 35.257812 27.527344 35.238281 27.394531 35.257812 C 27.738281 35.082031 28.121094 34.996094 28.539062 35.007812 C 29.855469 34.828125 31.171875 34.871094 32.480469 35.132812 Z M 32.480469 35.132812 "/>
<path style=" stroke:none;fill-rule:evenodd;fill:rgb(65.490198%,31.764707%,11.764706%);fill-opacity:1;" d="M 27.394531 35.257812 C 27.527344 35.238281 27.65625 35.257812 27.777344 35.320312 C 24.160156 36.222656 21.617188 38.351562 20.148438 41.707031 C 17.4375 41.855469 15.066406 42.792969 13.03125 44.527344 C 12.921875 44.484375 12.878906 44.398438 12.902344 44.273438 C 14.996094 42.554688 17.410156 41.636719 20.148438 41.519531 C 21.492188 38.246094 23.90625 36.160156 27.394531 35.257812 Z M 27.394531 35.257812 "/>
<path style=" stroke:none;fill-rule:evenodd;fill:rgb(66.274512%,34.901962%,0%);fill-opacity:1;" d="M 42.648438 45.902344 C 43.691406 45.824219 44.136719 46.285156 43.984375 47.28125 C 43.699219 47.828125 43.253906 48.015625 42.648438 47.84375 C 42.09375 47.566406 41.902344 47.128906 42.078125 46.53125 C 42.207031 46.257812 42.398438 46.046875 42.648438 45.902344 Z M 42.648438 45.902344 "/>
<path style=" stroke:none;fill-rule:evenodd;fill:rgb(65.882355%,34.901962%,0%);fill-opacity:1;" d="M 36.800781 48.15625 C 38.519531 48.117188 39.175781 48.910156 38.769531 50.539062 C 38.246094 51.242188 37.546875 51.46875 36.671875 51.226562 C 35.828125 50.722656 35.554688 49.992188 35.847656 49.035156 C 36.152344 48.714844 36.46875 48.421875 36.800781 48.15625 Z M 36.800781 48.15625 "/>
<path style=" stroke:none;fill-rule:evenodd;fill:rgb(66.274512%,34.901962%,0%);fill-opacity:1;" d="M 36.164062 55.421875 C 37.007812 55.355469 37.410156 55.730469 37.371094 56.550781 C 36.867188 57.507812 36.273438 57.550781 35.59375 56.675781 C 35.476562 56.113281 35.667969 55.695312 36.164062 55.421875 Z M 36.164062 55.421875 "/>
</g>
</svg>
