<?xml version="1.0" encoding="UTF-8"?>
<svg xmlns="http://www.w3.org/2000/svg" xmlns:xlink="http://www.w3.org/1999/xlink" width="240px" height="256px" viewBox="0 0 240 255" version="1.1">
<g id="surface1">
<path style=" stroke:none;fill-rule:evenodd;fill:rgb(61.960787%,83.92157%,26.666668%);fill-opacity:1;" d="M 130.933594 94.039062 C 129.230469 96.15625 127.703125 98.4375 126.355469 100.882812 C 130.675781 114.375 131.863281 128.144531 129.914062 142.203125 C 124.679688 141.136719 119.425781 140.96875 114.152344 141.695312 C 116.78125 124.199219 114.746094 107.300781 108.050781 91 C 100.777344 74.867188 90.441406 60.925781 77.035156 49.175781 C 72.351562 45.011719 67.519531 41.042969 62.542969 37.261719 C 61.046875 34.1875 61.976562 33.089844 65.339844 33.964844 C 75.082031 39.792969 84.402344 46.214844 93.304688 53.230469 C 97.980469 57.722656 102.472656 62.371094 106.78125 67.171875 C 111.445312 73.78125 116.109375 80.371094 120.761719 86.941406 C 126.375 80.757812 131.714844 74.335938 136.78125 67.679688 C 142.488281 61.648438 148.507812 55.984375 154.832031 50.695312 C 159.546875 47.851562 164.121094 44.8125 168.558594 41.570312 C 170.1875 40.820312 171.882812 40.648438 173.644531 41.0625 C 174.179688 41.765625 174.265625 42.527344 173.898438 43.34375 C 155.867188 57.199219 141.542969 74.097656 130.933594 94.039062 Z M 130.933594 94.039062 "/>
<path style=" stroke:none;fill-rule:evenodd;fill:rgb(41.568628%,65.882355%,15.294118%);fill-opacity:1;" d="M 130.933594 94.039062 C 141.542969 74.097656 155.867188 57.199219 173.898438 43.34375 C 174.265625 42.527344 174.179688 41.765625 173.644531 41.0625 C 171.882812 40.648438 170.1875 40.820312 168.558594 41.570312 C 164.121094 44.8125 159.546875 47.851562 154.832031 50.695312 C 148.507812 55.984375 142.488281 61.648438 136.78125 67.679688 C 131.714844 74.335938 126.375 80.757812 120.761719 86.941406 C 116.109375 80.371094 111.445312 73.78125 106.78125 67.171875 C 102.472656 62.371094 97.980469 57.722656 93.304688 53.230469 C 84.402344 46.214844 75.082031 39.792969 65.339844 33.964844 C 61.976562 33.089844 61.046875 34.1875 62.542969 37.261719 C 67.519531 41.042969 72.351562 45.011719 77.035156 49.175781 C 90.441406 60.925781 100.777344 74.867188 108.050781 91 C 78.457031 91.246094 55.660156 79.078125 39.660156 54.496094 C 30.457031 38.050781 27.320312 20.5625 30.253906 2.027344 C 52.378906 1.328125 72.71875 6.90625 91.269531 18.757812 C 99.230469 24.746094 105.839844 31.929688 111.101562 40.304688 C 109.335938 43.734375 107.640625 47.199219 106.015625 50.695312 C 108.695312 52.503906 111.152344 54.617188 113.390625 57.03125 C 115.804688 60.664062 118.09375 64.382812 120.253906 68.1875 C 124.078125 56.5 129.757812 45.851562 137.289062 36.246094 C 147.554688 25.335938 160.011719 17.984375 174.660156 14.195312 C 184.671875 11.308594 194.839844 9.871094 205.167969 9.886719 C 208.078125 32.019531 202.742188 51.960938 189.152344 69.707031 C 173.984375 87.734375 154.578125 95.847656 130.933594 94.039062 Z M 130.933594 94.039062 "/>
<path style=" stroke:none;fill-rule:evenodd;fill:rgb(81.176472%,42.745098%,8.627451%);fill-opacity:1;" d="M 51.609375 179.210938 C 51.523438 179.710938 51.691406 180.050781 52.117188 180.222656 C 60.328125 194.0625 71.851562 204.285156 86.695312 210.894531 C 92.972656 213.40625 99.414062 215.347656 106.015625 216.726562 C 111.292969 185.433594 129.769531 169.042969 161.441406 167.550781 C 171.878906 167.253906 181.285156 170.128906 189.660156 176.167969 C 201.347656 153.539062 202.027344 130.558594 191.695312 107.222656 C 188.957031 100.65625 185.144531 94.824219 180.253906 89.730469 C 184.875 86.480469 189.195312 82.847656 193.21875 78.832031 C 196.542969 74.828125 199.675781 70.6875 202.628906 66.410156 C 206.167969 64.996094 209.300781 65.589844 212.035156 68.1875 C 214.890625 72.21875 217.941406 76.105469 221.1875 79.847656 C 223.257812 82.5625 223.933594 85.605469 223.21875 88.972656 C 220.949219 92.289062 218.578125 95.496094 216.101562 98.601562 C 214.285156 107.550781 217.417969 114.054688 225.507812 118.121094 C 230.253906 118.496094 233.894531 120.609375 236.441406 124.457031 C 237.003906 129.160156 237.261719 133.894531 237.203125 138.652344 C 237.253906 143.578125 237 148.476562 236.441406 153.355469 C 235.367188 155.609375 233.753906 157.382812 231.609375 158.679688 C 221.007812 160.292969 215.671875 166.460938 215.59375 177.183594 C 216.988281 180.9375 219.191406 184.148438 222.203125 186.8125 C 224.511719 190.203125 224.511719 193.585938 222.203125 196.953125 C 218.277344 202.050781 214.546875 207.289062 211.015625 212.667969 C 208.34375 216.578125 204.699219 218.015625 200.085938 216.976562 C 191.925781 212.382812 184.386719 213.308594 177.457031 219.765625 C 174.195312 224.078125 173.261719 228.894531 174.660156 234.214844 C 174.671875 239.273438 172.300781 242.652344 167.542969 244.355469 C 159.347656 247.808594 150.960938 250.597656 142.371094 252.71875 C 140.390625 252.449219 138.613281 251.6875 137.035156 250.4375 C 135.191406 247.691406 133.410156 244.902344 131.695312 242.074219 C 127.25 237.667969 121.910156 236.0625 115.679688 237.257812 C 113.28125 237.859375 111.078125 238.875 109.066406 240.296875 C 106.570312 243.589844 104.195312 246.96875 101.949219 250.4375 C 100.234375 251.761719 98.285156 252.523438 96.101562 252.71875 C 86.964844 250.300781 78.066406 247.175781 69.40625 243.339844 C 66.355469 241.332031 64.828125 238.460938 64.832031 234.722656 C 67.066406 225.101562 63.507812 218.511719 54.152344 214.949219 C 48.902344 213.453125 43.988281 214.128906 39.40625 216.976562 C 35.21875 218.007812 31.746094 216.910156 28.984375 213.683594 C 24.914062 207.597656 20.847656 201.515625 16.78125 195.433594 C 16.441406 193.234375 16.441406 191.039062 16.78125 188.84375 C 18.078125 186.195312 19.773438 183.828125 21.863281 181.746094 C 24.851562 174.851562 23.917969 168.515625 19.066406 162.734375 C 15.632812 160.058594 11.734375 158.539062 7.371094 158.171875 C 4.960938 156.871094 3.433594 154.925781 2.796875 152.339844 C 3.472656 143.382812 3.472656 134.429688 2.796875 125.472656 C 3.28125 123.042969 4.636719 121.269531 6.863281 120.148438 C 17.90625 118.601562 23.585938 112.265625 23.898438 101.136719 C 23.503906 99.339844 22.828125 97.648438 21.863281 96.070312 C 20.339844 94.210938 18.8125 92.351562 17.289062 90.492188 C 16.539062 88.171875 16.367188 85.804688 16.78125 83.394531 C 20.167969 77.316406 24.320312 71.824219 29.238281 66.917969 C 31.472656 65.714844 33.84375 65.375 36.355469 65.90625 C 42.519531 74.667969 49.976562 82.1875 58.730469 88.464844 C 59.28125 88.902344 59.363281 89.410156 58.984375 89.984375 C 43.890625 107.925781 38.125 128.542969 41.695312 151.835938 C 43.148438 161.675781 46.453125 170.800781 51.609375 179.210938 Z M 51.609375 179.210938 "/>
<path style=" stroke:none;fill-rule:evenodd;fill:rgb(80.784315%,33.725491%,15.686275%);fill-opacity:1;" d="M 2.796875 125.472656 C 3.472656 134.429688 3.472656 143.382812 2.796875 152.339844 C 2.460938 143.511719 2.460938 134.558594 2.796875 125.472656 Z M 2.796875 125.472656 "/>
<path style=" stroke:none;fill-rule:evenodd;fill:rgb(66.274512%,34.901962%,0.392157%);fill-opacity:1;" d="M 129.914062 142.203125 C 144.507812 145.597656 155.015625 154.046875 161.441406 167.550781 C 129.769531 169.042969 111.292969 185.433594 106.015625 216.726562 C 99.414062 215.347656 92.972656 213.40625 86.695312 210.894531 C 71.851562 204.285156 60.328125 194.0625 52.117188 180.222656 C 60.257812 173.214844 69.75 169.410156 80.59375 168.816406 C 86.46875 155.230469 96.640625 146.613281 111.101562 142.960938 C 110.621094 142.71875 110.109375 142.632812 109.578125 142.707031 C 110.957031 141.992188 112.484375 141.652344 114.152344 141.695312 C 119.425781 140.96875 124.679688 141.136719 129.914062 142.203125 Z M 129.914062 142.203125 "/>
<path style=" stroke:none;fill-rule:evenodd;fill:rgb(65.490198%,31.764707%,11.764706%);fill-opacity:1;" d="M 109.578125 142.707031 C 110.109375 142.632812 110.621094 142.71875 111.101562 142.960938 C 96.640625 146.613281 86.46875 155.230469 80.59375 168.816406 C 69.75 169.410156 60.257812 173.214844 52.117188 180.222656 C 51.691406 180.050781 51.523438 179.710938 51.609375 179.210938 C 59.984375 172.25 69.644531 168.53125 80.59375 168.058594 C 85.96875 154.804688 95.628906 146.355469 109.578125 142.707031 Z M 109.578125 142.707031 "/>
<path style=" stroke:none;fill-rule:evenodd;fill:rgb(66.274512%,34.901962%,0%);fill-opacity:1;" d="M 170.59375 185.800781 C 174.765625 185.480469 176.546875 187.339844 175.933594 191.375 C 174.800781 193.585938 173.019531 194.347656 170.59375 193.65625 C 168.375 192.53125 167.613281 190.753906 168.304688 188.335938 C 168.828125 187.226562 169.589844 186.382812 170.59375 185.800781 Z M 170.59375 185.800781 "/>
<path style=" stroke:none;fill-rule:evenodd;fill:rgb(65.882355%,34.901962%,0%);fill-opacity:1;" d="M 147.203125 194.925781 C 154.082031 194.765625 156.707031 197.976562 155.085938 204.558594 C 152.984375 207.402344 150.1875 208.332031 146.695312 207.347656 C 143.320312 205.308594 142.21875 202.351562 143.390625 198.472656 C 144.609375 197.171875 145.878906 195.988281 147.203125 194.925781 Z M 147.203125 194.925781 "/>
<path style=" stroke:none;fill-rule:evenodd;fill:rgb(66.274512%,34.901962%,0%);fill-opacity:1;" d="M 144.660156 224.328125 C 148.027344 224.050781 149.636719 225.574219 149.492188 228.890625 C 147.460938 232.769531 145.089844 232.941406 142.371094 229.398438 C 141.902344 227.125 142.667969 225.4375 144.660156 224.328125 Z M 144.660156 224.328125 "/>
</g>
</svg>
