<?xml version="1.0" encoding="UTF-8"?>
<svg xmlns="http://www.w3.org/2000/svg" xmlns:xlink="http://www.w3.org/1999/xlink" width="30px" height="32px" viewBox="0 0 30 31" version="1.1">
<g id="surface1">
<path style=" stroke:none;fill-rule:evenodd;fill:rgb(61.960787%,83.92157%,26.666668%);fill-opacity:1;" d="M 16.367188 11.433594 C 16.152344 11.691406 15.964844 11.96875 15.792969 12.265625 C 16.335938 13.902344 16.484375 15.578125 16.238281 17.289062 C 15.585938 17.15625 14.929688 17.136719 14.269531 17.226562 C 14.597656 15.097656 14.34375 13.042969 13.507812 11.0625 C 12.597656 9.101562 11.304688 7.40625 9.628906 5.976562 C 9.042969 5.472656 8.441406 4.988281 7.816406 4.53125 C 7.628906 4.15625 7.746094 4.023438 8.167969 4.128906 C 9.386719 4.835938 10.550781 5.617188 11.664062 6.472656 C 12.246094 7.015625 12.808594 7.582031 13.347656 8.164062 C 13.929688 8.96875 14.511719 9.769531 15.09375 10.570312 C 15.796875 9.816406 16.464844 9.035156 17.097656 8.226562 C 17.8125 7.496094 18.5625 6.804688 19.355469 6.164062 C 19.941406 5.816406 20.515625 5.449219 21.070312 5.054688 C 21.273438 4.960938 21.484375 4.941406 21.707031 4.992188 C 21.773438 5.078125 21.78125 5.171875 21.738281 5.269531 C 19.484375 6.953125 17.691406 9.007812 16.367188 11.433594 Z M 16.367188 11.433594 "/>
<path style=" stroke:none;fill-rule:evenodd;fill:rgb(41.568628%,65.882355%,15.294118%);fill-opacity:1;" d="M 16.367188 11.433594 C 17.691406 9.007812 19.484375 6.953125 21.738281 5.269531 C 21.78125 5.171875 21.773438 5.078125 21.707031 4.992188 C 21.484375 4.941406 21.273438 4.960938 21.070312 5.054688 C 20.515625 5.449219 19.941406 5.816406 19.355469 6.164062 C 18.5625 6.804688 17.8125 7.496094 17.097656 8.226562 C 16.464844 9.035156 15.796875 9.816406 15.09375 10.570312 C 14.511719 9.769531 13.929688 8.96875 13.347656 8.164062 C 12.808594 7.582031 12.246094 7.015625 11.664062 6.472656 C 10.550781 5.617188 9.386719 4.835938 8.167969 4.128906 C 7.746094 4.023438 7.628906 4.15625 7.816406 4.53125 C 8.441406 4.988281 9.042969 5.472656 9.628906 5.976562 C 11.304688 7.40625 12.597656 9.101562 13.507812 11.0625 C 9.808594 11.09375 6.957031 9.613281 4.957031 6.625 C 3.808594 4.625 3.414062 2.5 3.78125 0.246094 C 6.546875 0.160156 9.089844 0.839844 11.410156 2.28125 C 12.402344 3.007812 13.230469 3.882812 13.886719 4.898438 C 13.667969 5.316406 13.457031 5.738281 13.253906 6.164062 C 13.585938 6.382812 13.894531 6.640625 14.171875 6.933594 C 14.476562 7.375 14.761719 7.828125 15.03125 8.289062 C 15.511719 6.867188 16.21875 5.574219 17.160156 4.40625 C 18.445312 3.082031 20 2.1875 21.832031 1.726562 C 23.082031 1.375 24.355469 1.199219 25.644531 1.203125 C 26.011719 3.894531 25.34375 6.316406 23.644531 8.472656 C 21.746094 10.664062 19.320312 11.652344 16.367188 11.433594 Z M 16.367188 11.433594 "/>
<path style=" stroke:none;fill-rule:evenodd;fill:rgb(81.176472%,42.745098%,8.627451%);fill-opacity:1;" d="M 6.453125 21.785156 C 6.441406 21.847656 6.460938 21.886719 6.515625 21.910156 C 7.539062 23.59375 8.980469 24.835938 10.835938 25.636719 C 11.621094 25.941406 12.425781 26.179688 13.253906 26.347656 C 13.910156 22.542969 16.222656 20.550781 20.179688 20.367188 C 21.484375 20.332031 22.660156 20.683594 23.707031 21.417969 C 25.167969 18.664062 25.253906 15.871094 23.960938 13.035156 C 23.621094 12.238281 23.144531 11.527344 22.53125 10.910156 C 23.109375 10.511719 23.648438 10.070312 24.152344 9.582031 C 24.566406 9.097656 24.960938 8.59375 25.328125 8.074219 C 25.769531 7.902344 26.164062 7.972656 26.503906 8.289062 C 26.859375 8.78125 27.242188 9.25 27.648438 9.707031 C 27.90625 10.035156 27.992188 10.40625 27.902344 10.816406 C 27.617188 11.21875 27.324219 11.609375 27.011719 11.988281 C 26.785156 13.074219 27.175781 13.867188 28.1875 14.359375 C 28.78125 14.40625 29.238281 14.664062 29.554688 15.128906 C 29.625 15.703125 29.65625 16.277344 29.652344 16.855469 C 29.65625 17.453125 29.625 18.050781 29.554688 18.644531 C 29.421875 18.917969 29.21875 19.132812 28.953125 19.289062 C 27.625 19.488281 26.957031 20.238281 26.949219 21.539062 C 27.125 21.996094 27.398438 22.386719 27.777344 22.710938 C 28.0625 23.121094 28.0625 23.535156 27.777344 23.941406 C 27.285156 24.5625 26.820312 25.199219 26.378906 25.855469 C 26.042969 26.328125 25.585938 26.503906 25.011719 26.378906 C 23.992188 25.820312 23.046875 25.933594 22.183594 26.714844 C 21.773438 27.242188 21.65625 27.828125 21.832031 28.472656 C 21.832031 29.089844 21.539062 29.5 20.941406 29.707031 C 19.917969 30.125 18.871094 30.464844 17.796875 30.722656 C 17.550781 30.691406 17.328125 30.597656 17.128906 30.445312 C 16.898438 30.113281 16.675781 29.773438 16.460938 29.429688 C 15.90625 28.894531 15.238281 28.699219 14.460938 28.84375 C 14.160156 28.917969 13.882812 29.039062 13.632812 29.210938 C 13.320312 29.613281 13.023438 30.023438 12.742188 30.445312 C 12.527344 30.605469 12.285156 30.699219 12.011719 30.722656 C 10.871094 30.429688 9.757812 30.046875 8.675781 29.582031 C 8.292969 29.339844 8.105469 28.988281 8.105469 28.535156 C 8.382812 27.367188 7.9375 26.5625 6.769531 26.132812 C 6.113281 25.949219 5.5 26.03125 4.925781 26.378906 C 4.402344 26.503906 3.96875 26.371094 3.621094 25.976562 C 3.113281 25.238281 2.605469 24.496094 2.097656 23.757812 C 2.054688 23.492188 2.054688 23.222656 2.097656 22.957031 C 2.261719 22.636719 2.472656 22.347656 2.734375 22.09375 C 3.105469 21.257812 2.988281 20.484375 2.382812 19.785156 C 1.953125 19.457031 1.464844 19.273438 0.921875 19.230469 C 0.621094 19.070312 0.429688 18.835938 0.347656 18.519531 C 0.433594 17.429688 0.433594 16.34375 0.347656 15.253906 C 0.410156 14.957031 0.578125 14.742188 0.859375 14.605469 C 2.238281 14.417969 2.949219 13.648438 2.988281 12.296875 C 2.9375 12.078125 2.851562 11.871094 2.734375 11.679688 C 2.542969 11.453125 2.351562 11.226562 2.160156 11 C 2.066406 10.71875 2.046875 10.429688 2.097656 10.136719 C 2.519531 9.398438 3.039062 8.730469 3.65625 8.136719 C 3.933594 7.988281 4.230469 7.949219 4.542969 8.011719 C 5.316406 9.078125 6.246094 9.992188 7.339844 10.753906 C 7.410156 10.808594 7.421875 10.871094 7.371094 10.9375 C 5.484375 13.121094 4.765625 15.625 5.210938 18.457031 C 5.394531 19.65625 5.808594 20.765625 6.453125 21.785156 Z M 6.453125 21.785156 "/>
<path style=" stroke:none;fill-rule:evenodd;fill:rgb(80.784315%,33.725491%,15.686275%);fill-opacity:1;" d="M 0.347656 15.253906 C 0.433594 16.34375 0.433594 17.429688 0.347656 18.519531 C 0.308594 17.445312 0.308594 16.359375 0.347656 15.253906 Z M 0.347656 15.253906 "/>
<path style=" stroke:none;fill-rule:evenodd;fill:rgb(66.274512%,34.901962%,0.392157%);fill-opacity:1;" d="M 16.238281 17.289062 C 18.0625 17.699219 19.378906 18.726562 20.179688 20.367188 C 16.222656 20.550781 13.910156 22.542969 13.253906 26.347656 C 12.425781 26.179688 11.621094 25.941406 10.835938 25.636719 C 8.980469 24.835938 7.539062 23.59375 6.515625 21.910156 C 7.53125 21.058594 8.71875 20.59375 10.074219 20.523438 C 10.808594 18.871094 12.078125 17.824219 13.886719 17.378906 C 13.828125 17.351562 13.765625 17.339844 13.695312 17.347656 C 13.871094 17.261719 14.058594 17.222656 14.269531 17.226562 C 14.929688 17.136719 15.585938 17.15625 16.238281 17.289062 Z M 16.238281 17.289062 "/>
<path style=" stroke:none;fill-rule:evenodd;fill:rgb(65.490198%,31.764707%,11.764706%);fill-opacity:1;" d="M 13.695312 17.347656 C 13.765625 17.339844 13.828125 17.351562 13.886719 17.378906 C 12.078125 17.824219 10.808594 18.871094 10.074219 20.523438 C 8.71875 20.59375 7.53125 21.058594 6.515625 21.910156 C 6.460938 21.886719 6.441406 21.847656 6.453125 21.785156 C 7.496094 20.941406 8.707031 20.488281 10.074219 20.429688 C 10.746094 18.820312 11.953125 17.792969 13.695312 17.347656 Z M 13.695312 17.347656 "/>
<path style=" stroke:none;fill-rule:evenodd;fill:rgb(66.274512%,34.901962%,0%);fill-opacity:1;" d="M 21.324219 22.585938 C 21.847656 22.546875 22.070312 22.773438 21.992188 23.265625 C 21.851562 23.535156 21.628906 23.625 21.324219 23.542969 C 21.046875 23.40625 20.953125 23.191406 21.039062 22.894531 C 21.101562 22.761719 21.199219 22.65625 21.324219 22.585938 Z M 21.324219 22.585938 "/>
<path style=" stroke:none;fill-rule:evenodd;fill:rgb(65.882355%,34.901962%,0%);fill-opacity:1;" d="M 18.402344 23.695312 C 19.261719 23.675781 19.589844 24.066406 19.386719 24.867188 C 19.121094 25.214844 18.773438 25.328125 18.335938 25.207031 C 17.914062 24.960938 17.777344 24.601562 17.921875 24.128906 C 18.074219 23.96875 18.234375 23.828125 18.402344 23.695312 Z M 18.402344 23.695312 "/>
<path style=" stroke:none;fill-rule:evenodd;fill:rgb(66.274512%,34.901962%,0%);fill-opacity:1;" d="M 18.082031 27.269531 C 18.503906 27.238281 18.703125 27.421875 18.6875 27.824219 C 18.433594 28.296875 18.136719 28.316406 17.796875 27.886719 C 17.738281 27.613281 17.832031 27.40625 18.082031 27.269531 Z M 18.082031 27.269531 "/>
</g>
</svg>
