<?xml version="1.0" encoding="UTF-8"?>
<svg xmlns="http://www.w3.org/2000/svg" xmlns:xlink="http://www.w3.org/1999/xlink" width="15px" height="16px" viewBox="0 0 15 15" version="1.1">
<g id="surface1">
<path style=" stroke:none;fill-rule:evenodd;fill:rgb(61.960787%,83.92157%,26.666668%);fill-opacity:1;" d="M 8.183594 5.53125 C 8.078125 5.65625 7.980469 5.789062 7.898438 5.933594 C 8.167969 6.726562 8.242188 7.539062 8.121094 8.363281 C 7.792969 8.300781 7.464844 8.292969 7.132812 8.335938 C 7.296875 7.304688 7.171875 6.3125 6.753906 5.351562 C 6.296875 4.402344 5.652344 3.582031 4.816406 2.894531 C 4.523438 2.648438 4.21875 2.414062 3.910156 2.191406 C 3.816406 2.011719 3.875 1.945312 4.082031 1.996094 C 4.691406 2.339844 5.273438 2.71875 5.832031 3.132812 C 6.125 3.394531 6.40625 3.667969 6.671875 3.953125 C 6.964844 4.339844 7.257812 4.726562 7.546875 5.113281 C 7.898438 4.75 8.230469 4.371094 8.546875 3.980469 C 8.90625 3.625 9.28125 3.292969 9.675781 2.980469 C 9.972656 2.816406 10.257812 2.636719 10.535156 2.445312 C 10.636719 2.402344 10.742188 2.390625 10.851562 2.414062 C 10.886719 2.457031 10.890625 2.5 10.867188 2.550781 C 9.742188 3.363281 8.847656 4.359375 8.183594 5.53125 Z M 8.183594 5.53125 "/>
<path style=" stroke:none;fill-rule:evenodd;fill:rgb(41.568628%,65.882355%,15.294118%);fill-opacity:1;" d="M 8.183594 5.53125 C 8.847656 4.359375 9.742188 3.363281 10.867188 2.550781 C 10.890625 2.5 10.886719 2.457031 10.851562 2.414062 C 10.742188 2.390625 10.636719 2.402344 10.535156 2.445312 C 10.257812 2.636719 9.972656 2.816406 9.675781 2.980469 C 9.28125 3.292969 8.90625 3.625 8.546875 3.980469 C 8.230469 4.371094 7.898438 4.75 7.546875 5.113281 C 7.257812 4.726562 6.964844 4.339844 6.671875 3.953125 C 6.40625 3.667969 6.125 3.394531 5.832031 3.132812 C 5.273438 2.71875 4.691406 2.339844 4.082031 1.996094 C 3.875 1.945312 3.816406 2.011719 3.910156 2.191406 C 4.21875 2.414062 4.523438 2.648438 4.816406 2.894531 C 5.652344 3.582031 6.296875 4.402344 6.753906 5.351562 C 4.902344 5.367188 3.480469 4.652344 2.480469 3.207031 C 1.902344 2.238281 1.707031 1.210938 1.890625 0.121094 C 3.273438 0.078125 4.542969 0.40625 5.703125 1.101562 C 6.203125 1.457031 6.613281 1.878906 6.945312 2.371094 C 6.832031 2.574219 6.726562 2.777344 6.625 2.980469 C 6.792969 3.089844 6.945312 3.210938 7.085938 3.355469 C 7.238281 3.570312 7.378906 3.789062 7.515625 4.011719 C 7.753906 3.324219 8.109375 2.695312 8.582031 2.132812 C 9.222656 1.492188 10 1.058594 10.917969 0.835938 C 11.542969 0.664062 12.175781 0.582031 12.824219 0.582031 C 13.003906 1.882812 12.671875 3.054688 11.820312 4.101562 C 10.875 5.160156 9.660156 5.636719 8.183594 5.53125 Z M 8.183594 5.53125 "/>
<path style=" stroke:none;fill-rule:evenodd;fill:rgb(81.176472%,42.745098%,8.627451%);fill-opacity:1;" d="M 3.226562 10.542969 C 3.21875 10.570312 3.230469 10.589844 3.257812 10.601562 C 3.769531 11.414062 4.492188 12.015625 5.417969 12.40625 C 5.8125 12.554688 6.214844 12.667969 6.625 12.75 C 6.957031 10.90625 8.109375 9.945312 10.089844 9.855469 C 10.742188 9.839844 11.332031 10.007812 11.855469 10.363281 C 12.585938 9.03125 12.625 7.679688 11.980469 6.308594 C 11.808594 5.921875 11.570312 5.578125 11.265625 5.277344 C 11.554688 5.085938 11.824219 4.875 12.078125 4.636719 C 12.285156 4.402344 12.480469 4.15625 12.664062 3.90625 C 12.886719 3.824219 13.082031 3.859375 13.253906 4.011719 C 13.429688 4.25 13.621094 4.476562 13.824219 4.695312 C 13.953125 4.855469 13.996094 5.035156 13.953125 5.234375 C 13.808594 5.429688 13.660156 5.617188 13.507812 5.800781 C 13.394531 6.328125 13.589844 6.710938 14.09375 6.949219 C 14.390625 6.96875 14.617188 7.09375 14.777344 7.320312 C 14.8125 7.597656 14.828125 7.875 14.824219 8.15625 C 14.828125 8.445312 14.8125 8.734375 14.777344 9.019531 C 14.710938 9.152344 14.609375 9.257812 14.476562 9.335938 C 13.8125 9.429688 13.480469 9.792969 13.472656 10.421875 C 13.5625 10.644531 13.699219 10.832031 13.886719 10.988281 C 14.03125 11.1875 14.03125 11.386719 13.886719 11.585938 C 13.640625 11.886719 13.410156 12.195312 13.1875 12.511719 C 13.023438 12.738281 12.792969 12.824219 12.503906 12.761719 C 11.996094 12.492188 11.523438 12.546875 11.089844 12.925781 C 10.886719 13.179688 10.828125 13.464844 10.917969 13.777344 C 10.917969 14.074219 10.769531 14.273438 10.472656 14.375 C 9.960938 14.578125 9.433594 14.742188 8.898438 14.867188 C 8.773438 14.851562 8.664062 14.804688 8.566406 14.730469 C 8.449219 14.570312 8.339844 14.40625 8.230469 14.238281 C 7.953125 13.980469 7.621094 13.886719 7.230469 13.957031 C 7.082031 13.992188 6.941406 14.050781 6.816406 14.136719 C 6.660156 14.328125 6.511719 14.527344 6.371094 14.730469 C 6.265625 14.808594 6.144531 14.855469 6.007812 14.867188 C 5.433594 14.722656 4.878906 14.539062 4.339844 14.3125 C 4.148438 14.195312 4.050781 14.027344 4.050781 13.808594 C 4.191406 13.242188 3.96875 12.855469 3.382812 12.644531 C 3.054688 12.554688 2.75 12.597656 2.464844 12.761719 C 2.203125 12.824219 1.984375 12.757812 1.8125 12.570312 C 1.558594 12.210938 1.304688 11.855469 1.046875 11.496094 C 1.027344 11.367188 1.027344 11.238281 1.046875 11.109375 C 1.128906 10.953125 1.234375 10.8125 1.367188 10.691406 C 1.554688 10.285156 1.496094 9.914062 1.191406 9.574219 C 0.976562 9.414062 0.734375 9.324219 0.460938 9.304688 C 0.308594 9.226562 0.214844 9.113281 0.175781 8.960938 C 0.21875 8.433594 0.21875 7.90625 0.175781 7.378906 C 0.207031 7.238281 0.289062 7.132812 0.429688 7.066406 C 1.121094 6.976562 1.472656 6.605469 1.492188 5.949219 C 1.46875 5.84375 1.425781 5.742188 1.367188 5.652344 C 1.269531 5.542969 1.175781 5.433594 1.082031 5.324219 C 1.035156 5.1875 1.023438 5.046875 1.046875 4.90625 C 1.261719 4.546875 1.519531 4.226562 1.828125 3.9375 C 1.96875 3.867188 2.117188 3.84375 2.273438 3.875 C 2.65625 4.390625 3.125 4.835938 3.671875 5.203125 C 3.703125 5.230469 3.710938 5.257812 3.6875 5.292969 C 2.742188 6.347656 2.382812 7.5625 2.605469 8.929688 C 2.695312 9.511719 2.902344 10.046875 3.226562 10.542969 Z M 3.226562 10.542969 "/>
<path style=" stroke:none;fill-rule:evenodd;fill:rgb(80.784315%,33.725491%,15.686275%);fill-opacity:1;" d="M 0.175781 7.378906 C 0.21875 7.90625 0.21875 8.433594 0.175781 8.960938 C 0.152344 8.441406 0.152344 7.914062 0.175781 7.378906 Z M 0.175781 7.378906 "/>
<path style=" stroke:none;fill-rule:evenodd;fill:rgb(66.274512%,34.901962%,0.392157%);fill-opacity:1;" d="M 8.121094 8.363281 C 9.03125 8.566406 9.6875 9.0625 10.089844 9.855469 C 8.109375 9.945312 6.957031 10.90625 6.625 12.75 C 6.214844 12.667969 5.8125 12.554688 5.417969 12.40625 C 4.492188 12.015625 3.769531 11.414062 3.257812 10.601562 C 3.765625 10.1875 4.359375 9.964844 5.035156 9.929688 C 5.40625 9.132812 6.039062 8.625 6.945312 8.410156 C 6.914062 8.394531 6.882812 8.390625 6.847656 8.394531 C 6.933594 8.351562 7.03125 8.332031 7.132812 8.335938 C 7.464844 8.292969 7.792969 8.300781 8.121094 8.363281 Z M 8.121094 8.363281 "/>
<path style=" stroke:none;fill-rule:evenodd;fill:rgb(65.490198%,31.764707%,11.764706%);fill-opacity:1;" d="M 6.847656 8.394531 C 6.882812 8.390625 6.914062 8.394531 6.945312 8.410156 C 6.039062 8.625 5.40625 9.132812 5.035156 9.929688 C 4.359375 9.964844 3.765625 10.1875 3.257812 10.601562 C 3.230469 10.589844 3.21875 10.570312 3.226562 10.542969 C 3.75 10.132812 4.351562 9.914062 5.035156 9.886719 C 5.371094 9.105469 5.976562 8.609375 6.847656 8.394531 Z M 6.847656 8.394531 "/>
<path style=" stroke:none;fill-rule:evenodd;fill:rgb(66.274512%,34.901962%,0%);fill-opacity:1;" d="M 10.660156 10.929688 C 10.921875 10.910156 11.035156 11.019531 10.996094 11.257812 C 10.925781 11.386719 10.8125 11.433594 10.660156 11.390625 C 10.523438 11.324219 10.476562 11.222656 10.519531 11.078125 C 10.550781 11.011719 10.597656 10.964844 10.660156 10.929688 Z M 10.660156 10.929688 "/>
<path style=" stroke:none;fill-rule:evenodd;fill:rgb(65.882355%,34.901962%,0%);fill-opacity:1;" d="M 9.199219 11.464844 C 9.628906 11.457031 9.792969 11.644531 9.691406 12.03125 C 9.5625 12.199219 9.386719 12.253906 9.167969 12.195312 C 8.957031 12.078125 8.886719 11.902344 8.960938 11.675781 C 9.039062 11.597656 9.117188 11.527344 9.199219 11.464844 Z M 9.199219 11.464844 "/>
<path style=" stroke:none;fill-rule:evenodd;fill:rgb(66.274512%,34.901962%,0%);fill-opacity:1;" d="M 9.042969 13.195312 C 9.25 13.179688 9.351562 13.269531 9.34375 13.464844 C 9.214844 13.691406 9.066406 13.703125 8.898438 13.492188 C 8.867188 13.359375 8.917969 13.261719 9.042969 13.195312 Z M 9.042969 13.195312 "/>
</g>
</svg>
