<?xml version="1.0" encoding="UTF-8"?>
<svg xmlns="http://www.w3.org/2000/svg" xmlns:xlink="http://www.w3.org/1999/xlink" width="480px" height="512px" viewBox="0 0 480 511" version="1.1">
<g id="surface1">
<path style=" stroke:none;fill-rule:evenodd;fill:rgb(61.960787%,83.92157%,26.666668%);fill-opacity:1;" d="M 261.863281 188.449219 C 258.457031 192.691406 255.40625 197.265625 252.710938 202.164062 C 261.351562 229.195312 263.722656 256.792969 259.832031 284.960938 C 249.363281 282.828125 238.855469 282.492188 228.304688 283.945312 C 233.5625 248.882812 229.492188 215.019531 216.101562 182.355469 C 201.558594 150.027344 180.878906 122.089844 154.066406 98.542969 C 144.703125 90.203125 135.042969 82.242188 125.085938 74.667969 C 122.09375 68.511719 123.957031 66.308594 130.679688 68.066406 C 150.160156 79.746094 168.804688 92.613281 186.609375 106.671875 C 195.964844 115.675781 204.945312 124.988281 213.558594 134.605469 C 222.894531 147.851562 232.214844 161.058594 241.527344 174.226562 C 252.75 161.828125 263.425781 148.960938 273.558594 135.625 C 284.980469 123.535156 297.011719 112.191406 309.660156 101.589844 C 319.089844 95.894531 328.242188 89.796875 337.117188 83.304688 C 340.375 81.796875 343.765625 81.457031 347.289062 82.289062 C 348.359375 83.699219 348.527344 85.222656 347.796875 86.859375 C 311.730469 114.621094 283.085938 148.484375 261.863281 188.449219 Z M 261.863281 188.449219 "/>
<path style=" stroke:none;fill-rule:evenodd;fill:rgb(41.568628%,65.882355%,15.294118%);fill-opacity:1;" d="M 261.863281 188.449219 C 283.085938 148.484375 311.730469 114.621094 347.796875 86.859375 C 348.527344 85.222656 348.359375 83.699219 347.289062 82.289062 C 343.765625 81.457031 340.375 81.796875 337.117188 83.304688 C 328.242188 89.796875 319.089844 95.894531 309.660156 101.589844 C 297.011719 112.191406 284.980469 123.535156 273.558594 135.625 C 263.425781 148.960938 252.75 161.828125 241.527344 174.226562 C 232.214844 161.058594 222.894531 147.851562 213.558594 134.605469 C 204.945312 124.988281 195.964844 115.675781 186.609375 106.671875 C 168.804688 92.613281 150.160156 79.746094 130.679688 68.066406 C 123.957031 66.308594 122.09375 68.511719 125.085938 74.667969 C 135.042969 82.242188 144.703125 90.203125 154.066406 98.542969 C 180.878906 122.089844 201.558594 150.027344 216.101562 182.355469 C 156.910156 182.851562 111.316406 158.46875 79.320312 109.210938 C 60.914062 76.253906 54.644531 41.203125 60.507812 4.0625 C 104.757812 2.664062 145.433594 13.835938 182.542969 37.589844 C 198.457031 49.589844 211.679688 63.980469 222.203125 80.765625 C 218.675781 87.644531 215.285156 94.585938 212.035156 101.589844 C 217.390625 105.214844 222.304688 109.449219 226.78125 114.289062 C 231.609375 121.570312 236.1875 129.019531 240.507812 136.640625 C 248.160156 113.21875 259.515625 91.882812 274.578125 72.636719 C 295.109375 50.773438 320.023438 36.042969 349.320312 28.445312 C 369.34375 22.660156 389.683594 19.78125 410.339844 19.808594 C 416.160156 64.167969 405.480469 104.125 378.304688 139.6875 C 347.96875 175.816406 309.15625 192.070312 261.863281 188.449219 Z M 261.863281 188.449219 "/>
<path style=" stroke:none;fill-rule:evenodd;fill:rgb(81.176472%,42.745098%,8.627451%);fill-opacity:1;" d="M 103.21875 359.121094 C 103.046875 360.128906 103.386719 360.804688 104.238281 361.152344 C 120.652344 388.886719 143.703125 409.375 173.390625 422.617188 C 185.949219 427.644531 198.832031 431.539062 212.035156 434.300781 C 222.585938 371.597656 259.535156 338.75 322.882812 335.757812 C 343.761719 335.167969 362.574219 340.921875 379.320312 353.027344 C 402.699219 307.683594 404.054688 261.628906 383.390625 214.863281 C 377.914062 201.707031 370.285156 190.023438 360.507812 179.816406 C 369.75 173.296875 378.390625 166.015625 386.441406 157.972656 C 393.082031 149.949219 399.355469 141.652344 405.253906 133.082031 C 412.332031 130.25 418.601562 131.433594 424.066406 136.640625 C 429.78125 144.71875 435.882812 152.507812 442.371094 160.003906 C 446.515625 165.449219 447.871094 171.542969 446.441406 178.292969 C 441.902344 184.9375 437.15625 191.371094 432.203125 197.59375 C 428.566406 215.519531 434.839844 228.558594 451.015625 236.707031 C 460.503906 237.457031 467.792969 241.6875 472.882812 249.40625 C 474.011719 258.828125 474.519531 268.3125 474.40625 277.851562 C 474.503906 287.71875 473.996094 297.539062 472.882812 307.3125 C 470.730469 311.828125 467.511719 315.386719 463.21875 317.976562 C 442.019531 321.214844 431.339844 333.574219 431.1875 355.058594 C 433.972656 362.585938 438.378906 369.019531 444.40625 374.359375 C 449.023438 381.15625 449.023438 387.929688 444.40625 394.679688 C 436.554688 404.894531 429.097656 415.390625 422.035156 426.171875 C 416.6875 434.007812 409.398438 436.886719 400.167969 434.808594 C 383.855469 425.59375 368.769531 427.457031 354.914062 440.394531 C 348.390625 449.03125 346.527344 458.683594 349.320312 469.347656 C 349.34375 479.480469 344.597656 486.253906 335.085938 489.664062 C 318.699219 496.589844 301.917969 502.175781 284.746094 506.429688 C 280.78125 505.890625 277.222656 504.363281 274.066406 501.855469 C 270.382812 496.355469 266.820312 490.769531 263.390625 485.09375 C 254.5 476.265625 243.820312 473.050781 231.355469 475.441406 C 226.5625 476.652344 222.15625 478.683594 218.136719 481.539062 C 213.140625 488.132812 208.394531 494.90625 203.898438 501.855469 C 200.46875 504.511719 196.570312 506.035156 192.203125 506.429688 C 173.925781 501.582031 156.128906 495.320312 138.8125 487.632812 C 132.710938 483.613281 129.660156 477.855469 129.660156 470.363281 C 134.136719 451.085938 127.019531 437.878906 108.304688 430.742188 C 97.808594 427.738281 87.976562 429.09375 78.8125 434.808594 C 70.441406 436.871094 63.492188 434.671875 57.964844 428.203125 C 49.832031 416.011719 41.695312 403.820312 33.558594 391.632812 C 32.882812 387.230469 32.882812 382.828125 33.558594 378.425781 C 36.160156 373.117188 39.550781 368.378906 43.730469 364.203125 C 49.703125 350.390625 47.839844 337.691406 38.136719 326.105469 C 31.265625 320.746094 23.46875 317.699219 14.746094 316.960938 C 9.921875 314.355469 6.871094 310.460938 5.59375 305.28125 C 6.949219 287.332031 6.949219 269.382812 5.59375 251.4375 C 6.5625 246.570312 9.273438 243.015625 13.730469 240.769531 C 35.816406 237.667969 47.171875 224.96875 47.796875 202.671875 C 47.011719 199.066406 45.652344 195.679688 43.730469 192.515625 C 40.679688 188.789062 37.628906 185.0625 34.578125 181.339844 C 33.074219 176.691406 32.734375 171.949219 33.558594 167.117188 C 40.335938 154.933594 48.640625 143.925781 58.472656 134.097656 C 62.941406 131.6875 67.6875 131.011719 72.710938 132.066406 C 85.035156 149.628906 99.949219 164.699219 117.457031 177.273438 C 118.558594 178.152344 118.726562 179.171875 117.964844 180.324219 C 87.777344 216.273438 76.253906 257.585938 83.390625 304.261719 C 86.296875 323.988281 92.90625 342.273438 103.21875 359.121094 Z M 103.21875 359.121094 "/>
<path style=" stroke:none;fill-rule:evenodd;fill:rgb(80.784315%,33.725491%,15.686275%);fill-opacity:1;" d="M 5.59375 251.4375 C 6.949219 269.382812 6.949219 287.332031 5.59375 305.28125 C 4.921875 287.589844 4.921875 269.640625 5.59375 251.4375 Z M 5.59375 251.4375 "/>
<path style=" stroke:none;fill-rule:evenodd;fill:rgb(66.274512%,34.901962%,0.392157%);fill-opacity:1;" d="M 259.832031 284.960938 C 289.015625 291.765625 310.035156 308.699219 322.882812 335.757812 C 259.535156 338.75 222.585938 371.597656 212.035156 434.300781 C 198.832031 431.539062 185.949219 427.644531 173.390625 422.617188 C 143.703125 409.375 120.652344 388.886719 104.238281 361.152344 C 120.515625 347.105469 139.5 339.488281 161.1875 338.296875 C 172.9375 311.070312 193.277344 293.800781 222.203125 286.484375 C 221.238281 285.996094 220.222656 285.824219 219.152344 285.976562 C 221.917969 284.542969 224.96875 283.863281 228.304688 283.945312 C 238.855469 282.492188 249.363281 282.828125 259.832031 284.960938 Z M 259.832031 284.960938 "/>
<path style=" stroke:none;fill-rule:evenodd;fill:rgb(65.490198%,31.764707%,11.764706%);fill-opacity:1;" d="M 219.152344 285.976562 C 220.222656 285.824219 221.238281 285.996094 222.203125 286.484375 C 193.277344 293.800781 172.9375 311.070312 161.1875 338.296875 C 139.5 339.488281 120.515625 347.105469 104.238281 361.152344 C 103.386719 360.804688 103.046875 360.128906 103.21875 359.121094 C 119.964844 345.175781 139.289062 337.726562 161.1875 336.773438 C 171.933594 310.214844 191.257812 293.285156 219.152344 285.976562 Z M 219.152344 285.976562 "/>
<path style=" stroke:none;fill-rule:evenodd;fill:rgb(66.274512%,34.901962%,0%);fill-opacity:1;" d="M 341.1875 372.328125 C 349.535156 371.691406 353.09375 375.417969 351.863281 383.503906 C 349.601562 387.933594 346.042969 389.457031 341.1875 388.074219 C 336.75 385.8125 335.226562 382.257812 336.609375 377.410156 C 337.652344 375.1875 339.179688 373.492188 341.1875 372.328125 Z M 341.1875 372.328125 "/>
<path style=" stroke:none;fill-rule:evenodd;fill:rgb(65.882355%,34.901962%,0%);fill-opacity:1;" d="M 294.40625 390.617188 C 308.160156 390.292969 313.417969 396.726562 310.167969 409.917969 C 305.96875 415.621094 300.375 417.484375 293.390625 415.503906 C 286.640625 411.425781 284.4375 405.5 286.78125 397.726562 C 289.214844 395.117188 291.757812 392.75 294.40625 390.617188 Z M 294.40625 390.617188 "/>
<path style=" stroke:none;fill-rule:evenodd;fill:rgb(66.274512%,34.901962%,0%);fill-opacity:1;" d="M 289.320312 449.539062 C 296.054688 448.984375 299.273438 452.03125 298.984375 458.679688 C 294.921875 466.457031 290.175781 466.796875 284.746094 459.695312 C 283.808594 455.140625 285.332031 451.753906 289.320312 449.539062 Z M 289.320312 449.539062 "/>
</g>
</svg>
